<?xml version="1.0" encoding="UTF-8" standalone="no"?><!DOCTYPE svg PUBLIC "-//W3C//DTD SVG 1.1//EN" "http://www.w3.org/Graphics/SVG/1.1/DTD/svg11.dtd"><svg width="100%" height="100%" viewBox="0 0 264 120" version="1.1" xmlns="http://www.w3.org/2000/svg" xmlns:xlink="http://www.w3.org/1999/xlink" xml:space="preserve" xmlns:serif="http://www.serif.com/" style="fill-rule:evenodd;clip-rule:evenodd;stroke-linejoin:round;stroke-miterlimit:1.41421;"><g><clipPath id="_clip1"><rect x="0.41" y="0.078" width="263.18" height="119.268" clip-rule="nonzero"/></clipPath><g clip-path="url(#_clip1)"><path d="M130.815,0.08c-40.115,0.178 -74.368,15.739 -88.368,37.631l-28.109,0.123c-7.694,0.035 -13.962,6.357 -13.928,14.052l0.235,53.532c0.035,7.694 6.355,13.961 14.049,13.928l116.564,-0.515c0.028,0 0.054,0.001 0.081,0c0.027,0 0.054,0 0.081,0l118.244,-0.522c7.694,-0.034 13.961,-6.357 13.925,-14.051l-0.234,-53.53c-0.033,-7.693 -6.356,-13.961 -14.05,-13.927l-29.804,0.131c-14.189,-21.767 -48.582,-37.031 -88.686,-36.852" style="fill:#be111f;fill-rule:nonzero;"/><path d="M254.792,60.101c-0.913,-1.428 -1.164,-2.232 -1.111,-3.163c0.043,-0.617 0.258,-1.507 0.556,-2.247c0.177,-0.315 0.247,-0.627 0.258,-0.788c0.013,-0.153 -0.084,-0.198 -0.233,-0.188c-0.311,0.022 -3.142,0.571 -5.641,1.41c-1.771,4.371 -5.684,9.374 -8.46,12.398l0.002,-0.013c-3.277,3.245 -5.178,5.177 -7.988,5.369c-2.764,0.177 -4.472,-1.451 -4.875,-4.553c4.271,-1.571 11.22,-4.357 11.542,-9.204c0.175,-2.632 -1.741,-4.25 -4.811,-4.04c-5.759,0.387 -11.701,7.026 -12.638,13.825c-1.748,1.944 -4.02,4.3 -5.423,4.391c-0.859,0.059 -1.363,-0.728 -1.276,-2.015c0.378,-5.733 8.115,-28.545 8.173,-29.473c0.022,-0.261 -0.119,-0.403 -0.475,-0.379c-1.289,0.136 -3.51,0.701 -5.951,1.426l-4.584,15.307c-1.197,-1.202 -1.932,-1.513 -3.503,-1.403c-5.667,0.383 -11.913,7.006 -13.463,13.817c-0.764,0.917 -4.455,5.11 -6.18,5.228c-0.765,0.048 -1.193,-0.483 -1.128,-1.415c0.053,-0.72 0.729,-2.616 1.817,-5.058c1.607,-3.645 2.583,-6.641 2.674,-8.085c0.128,-1.963 -1.05,-3.327 -2.734,-3.206c-3.224,0.217 -7.096,4.225 -11.323,8.877c0.682,-2.617 2.029,-5.938 3.046,-8.368l-6.157,1.587c-2.407,4.811 -3.79,8.437 -4.486,12.085c-3.417,3.454 -4.506,4.503 -5.68,4.584c-0.908,0.063 -1.479,-0.675 -1.383,-2.069c0.101,-1.545 1.513,-5.853 2.197,-7.746l2.695,-7.528l-1.381,0.093l-5.299,3.18c-0.684,-1.85 -2.103,-2.729 -4.149,-2.591c-4.301,0.283 -12.323,6.221 -13.81,14.086l-0.816,0.869c-2.69,2.847 -4.249,4.087 -5.155,4.144c-0.624,0.043 -0.995,-0.494 -0.937,-1.32c0.053,-0.93 0.528,-2.399 1.542,-4.884c1.473,-3.642 2.123,-5.944 2.261,-7.853c0.156,-2.272 -1.017,-3.837 -2.858,-3.711c-2.6,0.176 -5.224,2.818 -9.899,7.5c0.231,-1.357 0.395,-2.236 0.443,-3.011c0.162,-2.323 -0.908,-3.793 -2.643,-3.677c-2.605,0.183 -6.732,3.953 -9.487,7.115c-0.653,0.711 -0.865,0.987 -1.318,1.474c0.788,-2.671 1.665,-5.041 3.039,-8.115l-6.106,1.597c-2.651,5.125 -3.961,8.473 -4.634,12.164c-3.915,3.822 -4.402,4.265 -5.624,4.344c-1.128,0.081 -1.715,-0.805 -1.641,-2.201c0.104,-1.499 0.593,-2.757 2.855,-8.306l2.728,-6.607l-2.252,0.256c-2.586,4.388 -4.587,6.213 -7.685,6.889c0.899,-2.067 1.369,-3.641 1.426,-4.617c0.089,-1.344 -0.479,-1.972 -1.8,-1.882c-3.828,0.258 -5.24,5.38 -5.332,6.68c-0.087,1.286 0.528,2.121 1.952,2.689c-0.918,1.303 -1.996,2.646 -3.214,3.98l-0.003,-0.015c-0.426,0.39 -0.598,0.609 -1.077,1.051c-2.569,2.639 -3.956,3.654 -5.135,3.732c-0.973,0.067 -1.525,-0.767 -1.426,-2.257c0.125,-1.863 1.547,-5.606 5.095,-15.246l-6.891,1.853l-3.99,10.949c-0.629,1.793 -4.072,6.083 -6.004,6.214c-1.126,0.073 -1.731,-0.81 -1.634,-2.308c0.248,-3.457 4.455,-14.066 5.135,-15.754l-6.733,1.787c-2.048,4.857 -3.371,8.715 -4.019,11.85c-2.258,2.504 -3.507,3.043 -4.424,3.154c-1.053,0.025 -1.899,-0.381 -2.566,-1.004c2.055,-4.816 3.101,-8.38 3.325,-11.732c0.093,-1.392 0.214,-3.144 -4.327,-2.838c-7.27,0.487 -13.692,6.784 -14.567,14.163c-1.727,2.047 -3.313,3.348 -6.055,5.102c0.646,-2.003 1.229,-3.783 2.152,-6.208c0.125,-0.421 0.91,-2.118 0.925,-2.529c0.019,-0.356 -0.114,-0.505 -0.841,-0.353l-4.739,0.99c-3.111,4.626 -6.653,7.381 -9.812,7.592c-3.88,0.264 -6.169,-3.027 -5.808,-8.444c0.59,-8.613 7.506,-20.743 15.009,-21.247c3.015,-0.203 4.986,1.664 4.779,4.66c-0.28,4.176 -3.543,8.869 -6.255,9.051c-0.617,0.045 -1.865,-0.186 -1.779,-1.528c0.038,-0.565 -0.24,-0.851 -0.706,-0.825c-1.02,0.073 -2.024,1.37 -2.118,2.717c-0.156,2.215 1.993,3.766 5.056,3.558c5.255,-0.353 10.291,-5.677 10.669,-11.351c0.364,-5.266 -3.334,-8.616 -9.05,-8.223c-9.352,0.628 -21.964,11.291 -22.838,24.347c-0.499,7.477 3.216,12.678 8.886,12.291c3.94,-0.265 8.752,-3.931 10.509,-6.514c-1.114,2.953 -1.437,3.897 -2.26,6.263c-3.946,2.169 -9.307,5.509 -9.594,9.693c-0.161,2.27 1.394,3.499 4.104,3.317c3.316,-0.229 6.439,-2.129 8.959,-5.429c1.993,-2.605 3.025,-4.936 4.075,-9.421c3.485,-2.053 4.833,-2.869 6.682,-4.817c0.376,3.679 2.614,5.829 5.93,5.608c3.077,-0.208 5.949,-2.195 8.597,-6.026c1.219,0.897 2.162,1.194 3.474,1.156c0.885,-0.105 2.441,-0.578 4.162,-2.065c-0.005,0.012 -0.005,0.021 -0.005,0.038c-0.236,3.611 1.239,5.771 3.793,5.599c2.711,-0.182 5.482,-2.117 9.547,-6.552c-0.217,3.249 0.826,5.804 3.68,5.604c2.267,-0.142 4.925,-1.971 9.917,-6.781c2.67,-2.692 4.179,-4.54 5.55,-6.846c1.699,-0.415 2.749,-0.849 4.132,-1.606c-2.892,4.299 -4.27,7.375 -4.424,9.799c-0.185,2.528 1.277,4.383 3.328,4.238c2.301,-0.145 5.207,-2.077 9.804,-6.58c-0.043,0.327 -0.055,0.658 -0.08,0.995c-0.12,1.757 -0.127,3.349 -0.124,4.841l5.609,-1.712c0.28,-3.362 0.685,-5.543 1.706,-9.566c3.988,-4.744 6.655,-6.718 7.274,-6.758c0.458,-0.029 0.538,0.267 0.502,0.84c-0.041,0.565 -1.01,4.483 -1.427,6.005l-3.082,10.528l6.4,-1.564c2.01,-6.403 2.265,-7.295 3.198,-10.54c2.949,-3.69 5.424,-5.861 6.407,-5.929c0.501,-0.029 0.798,0.255 0.757,0.772c-0.036,0.618 -0.499,2.033 -1.237,3.988c-1.421,3.689 -2.16,6.411 -2.274,8.17c-0.171,2.577 1.094,4.139 3.289,3.99c2.508,-0.174 4.93,-1.775 9.829,-6.553c0.188,3.378 2.14,5.743 4.783,5.565c2.908,-0.195 5.66,-2.436 9.405,-7.623c-0.15,1.557 -0.564,7.029 3.265,6.766c2.508,-0.161 4.744,-2.295 9.144,-6.493c-0.033,0.298 -0.055,0.597 -0.077,0.902c-0.144,2.067 -0.087,3.55 -0.084,5.041l5.606,-1.662c0.198,-2.992 0.374,-4.904 1.403,-8.879c2.376,-2.831 6.345,-7.517 7.783,-7.612c0.412,-0.03 0.601,0.211 0.562,0.782c-0.155,0.829 -0.593,1.994 -1.431,3.846c-1.553,3.444 -2.634,6.753 -2.748,8.405c-0.176,2.633 1.195,4.234 3.436,4.083c2.767,-0.188 5.909,-2.251 10.092,-6.619c0.113,3.248 2.272,5.784 4.92,5.601c1.434,-0.093 3.174,-0.926 4.892,-2.381c1.664,-1.344 2.723,-2.595 4.357,-5.02c-0.408,6.811 2.862,6.587 3.424,6.55c2.551,-0.171 5.719,-3.26 9.201,-6.734c0.41,3.723 3.039,5.911 6.991,5.643c3.737,-0.252 6.591,-1.931 11.648,-6.897c3.458,-3.831 5.465,-6.325 8.005,-10.145c0.448,1.668 0.8,2.408 2.003,4.384c1.091,1.831 1.426,2.88 1.346,4.021c-0.15,2.218 -2.443,4.63 -4.484,4.771c-1.123,0.077 -1.699,-0.556 -2.094,-2.225c-0.28,-1.163 -0.644,-1.7 -1.203,-1.663c-0.821,0.06 -3.592,3.428 -3.641,4.207c-0.093,1.391 2.051,2.68 4.299,2.528c5.267,-0.357 11.634,-6.588 11.973,-11.75c0.101,-1.39 -0.233,-2.551 -1.38,-4.424m-236.035,41.655c-0.966,0.061 -1.545,-0.57 -1.461,-1.603c0.145,-2.065 2.483,-4.433 6.916,-6.889c-0.848,2.935 -2.383,8.275 -5.455,8.492m31.674,-25.667c-0.159,2.321 0.475,4.333 1.913,6.237c-1.575,2.37 -2.822,3.478 -4.041,3.562c-1.898,0.125 -2.884,-1.759 -2.653,-5.164c0.295,-4.332 2.398,-11.558 7.665,-11.915c0.504,-0.04 0.81,-0.006 1.06,0.08c-2.594,2.281 -3.749,4.361 -3.944,7.2m109.196,-11.063c-0.279,4.234 -4.027,12.448 -7.706,12.692c-1.388,0.101 -2.269,-1.076 -2.15,-2.885c0.287,-4.229 4.09,-12.4 7.755,-12.64c1.441,-0.101 2.234,0.971 2.101,2.833m51.076,-3.285c-0.284,4.225 -3.881,12.222 -7.499,12.471c-1.424,0.097 -2.274,-0.974 -2.156,-2.831c0.287,-4.131 4.053,-12.502 7.477,-12.73c1.472,-0.1 2.313,1.126 2.178,3.09m21.759,-4.554c1.118,-0.074 1.676,0.757 1.575,2.313c-0.213,3.247 -2.563,5.665 -6.82,7.138c0.387,-6.041 3.364,-9.325 5.245,-9.451" style="fill:#fff;fill-rule:nonzero;"/><path d="M254.64,59.65c-0.915,-1.433 -1.166,-2.233 -1.113,-3.163c0.041,-0.617 0.25,-1.506 0.564,-2.243c0.178,-0.319 0.238,-0.637 0.248,-0.79c0.012,-0.153 -0.092,-0.202 -0.237,-0.193c-0.312,0.023 -3.134,0.569 -5.635,1.409c-1.762,4.377 -5.69,9.384 -8.458,12.402l0.003,-0.015c-3.275,3.253 -5.183,5.179 -7.996,5.367c-2.754,0.186 -4.47,-1.441 -4.877,-4.552c4.275,-1.572 11.215,-4.347 11.552,-9.2c0.176,-2.629 -1.749,-4.25 -4.826,-4.047c-5.76,0.393 -11.697,7.025 -12.627,13.826c-1.746,1.949 -4.029,4.298 -5.422,4.395c-0.862,0.058 -1.366,-0.73 -1.289,-2.021c0.388,-5.724 8.121,-28.538 8.188,-29.465c0.024,-0.258 -0.125,-0.409 -0.475,-0.38c-1.284,0.138 -3.508,0.697 -5.956,1.425l-4.576,15.31c-1.196,-1.201 -1.934,-1.515 -3.521,-1.404c-5.655,0.38 -11.903,7.003 -13.455,13.817c-0.768,0.922 -4.46,5.109 -6.18,5.228c-0.767,0.05 -1.183,-0.484 -1.128,-1.417c0.049,-0.716 0.738,-2.618 1.822,-5.052c1.612,-3.651 2.573,-6.645 2.677,-8.095c0.133,-1.958 -1.044,-3.315 -2.742,-3.206c-3.219,0.225 -7.094,4.237 -11.323,8.887c0.694,-2.618 2.027,-5.948 3.053,-8.375l-6.154,1.595c-2.417,4.803 -3.802,8.432 -4.494,12.085c-3.412,3.449 -4.499,4.497 -5.677,4.578c-0.92,0.059 -1.475,-0.673 -1.385,-2.066c0.115,-1.545 1.506,-5.856 2.194,-7.752l2.692,-7.525l-1.381,0.091l-5.298,3.185c-0.689,-1.854 -2.111,-2.734 -4.137,-2.598c-4.318,0.293 -12.321,6.229 -13.817,14.093l-0.821,0.865c-2.69,2.858 -4.24,4.091 -5.165,4.152c-0.612,0.035 -0.971,-0.5 -0.915,-1.333c0.06,-0.927 0.508,-2.393 1.53,-4.878c1.477,-3.641 2.138,-5.947 2.265,-7.855c0.149,-2.268 -1.012,-3.834 -2.853,-3.711c-2.61,0.175 -5.224,2.821 -9.916,7.503c0.253,-1.35 0.408,-2.238 0.455,-3.012c0.16,-2.322 -0.91,-3.794 -2.647,-3.675c-2.605,0.174 -6.723,3.947 -9.477,7.117c-0.656,0.705 -0.88,0.98 -1.321,1.474c0.791,-2.676 1.66,-5.046 3.036,-8.118l-6.11,1.592c-2.634,5.128 -3.959,8.478 -4.622,12.175c-3.925,3.813 -4.403,4.257 -5.634,4.339c-1.118,0.077 -1.725,-0.807 -1.634,-2.2c0.109,-1.498 0.598,-2.763 2.849,-8.311l2.725,-6.606l-2.246,0.254c-2.583,4.388 -4.581,6.221 -7.686,6.889c0.896,-2.065 1.373,-3.637 1.43,-4.619c0.092,-1.338 -0.482,-1.966 -1.809,-1.877c-3.824,0.255 -5.243,5.39 -5.33,6.677c-0.086,1.294 0.518,2.119 1.964,2.695c-0.925,1.3 -1.993,2.647 -3.224,3.98l0,-0.015c-0.439,0.389 -0.588,0.605 -1.084,1.052c-2.564,2.636 -3.957,3.653 -5.128,3.733c-0.973,0.065 -1.535,-0.773 -1.431,-2.266c0.127,-1.864 1.552,-5.606 5.096,-15.241l-6.891,1.852l-3.993,10.952c-0.617,1.79 -4.065,6.082 -6.007,6.213c-1.111,0.069 -1.725,-0.811 -1.622,-2.305c0.224,-3.458 4.446,-14.07 5.123,-15.758l-6.728,1.79c-2.046,4.853 -3.361,8.709 -4.014,11.853c-2.261,2.501 -3.496,3.036 -4.429,3.154c-1.06,0.015 -1.898,-0.39 -2.564,-1.011c2.058,-4.813 3.106,-8.378 3.337,-11.732c0.089,-1.391 0.203,-3.144 -4.346,-2.84c-7.27,0.492 -13.675,6.789 -14.562,14.165c-1.716,2.049 -3.315,3.351 -6.046,5.104c0.639,-2 1.21,-3.784 2.141,-6.209c0.127,-0.423 0.91,-2.117 0.924,-2.533c0.03,-0.361 -0.11,-0.501 -0.836,-0.353l-4.746,0.99c-3.101,4.627 -6.644,7.385 -9.81,7.6c-3.881,0.261 -6.154,-3.031 -5.798,-8.451c0.586,-8.613 7.496,-20.738 15.02,-21.249c3.007,-0.201 4.958,1.669 4.756,4.662c-0.28,4.182 -3.537,8.869 -6.245,9.055c-0.615,0.035 -1.866,-0.184 -1.776,-1.526c0.031,-0.572 -0.253,-0.858 -0.704,-0.826c-1.026,0.069 -2.034,1.369 -2.125,2.708c-0.144,2.222 1.997,3.77 5.045,3.566c5.273,-0.351 10.301,-5.677 10.687,-11.351c0.354,-5.264 -3.34,-8.61 -9.06,-8.228c-9.342,0.63 -21.966,11.293 -22.836,24.348c-0.494,7.483 3.216,12.68 8.891,12.295c3.928,-0.266 8.757,-3.93 10.514,-6.517c-1.125,2.96 -1.444,3.901 -2.265,6.27c-3.959,2.164 -9.318,5.504 -9.605,9.683c-0.152,2.276 1.398,3.503 4.113,3.322c3.309,-0.223 6.439,-2.134 8.954,-5.43c2.01,-2.603 3.022,-4.933 4.087,-9.422c3.479,-2.051 4.829,-2.867 6.675,-4.811c0.37,3.671 2.602,5.829 5.934,5.607c3.063,-0.21 5.942,-2.203 8.586,-6.025c1.215,0.893 2.163,1.187 3.481,1.151c0.861,-0.108 2.439,-0.578 4.16,-2.066l0,0.038c-0.244,3.613 1.233,5.77 3.795,5.596c2.711,-0.18 5.481,-2.11 9.544,-6.544c-0.224,3.252 0.829,5.797 3.677,5.605c2.256,-0.15 4.928,-1.975 9.923,-6.782c2.665,-2.695 4.161,-4.544 5.547,-6.842c1.699,-0.428 2.746,-0.859 4.125,-1.619c-2.885,4.307 -4.26,7.378 -4.429,9.803c-0.164,2.529 1.28,4.385 3.333,4.246c2.303,-0.158 5.211,-2.087 9.805,-6.584c-0.029,0.327 -0.056,0.658 -0.076,0.995c-0.13,1.753 -0.13,3.351 -0.13,4.841l5.612,-1.72c0.273,-3.357 0.673,-5.543 1.704,-9.569c3.99,-4.732 6.658,-6.711 7.275,-6.753c0.463,-0.031 0.537,0.271 0.501,0.837c-0.041,0.571 -1.022,4.489 -1.417,6.004l-3.094,10.536l6.398,-1.56c2.015,-6.404 2.279,-7.293 3.202,-10.543c2.945,-3.691 5.429,-5.861 6.405,-5.928c0.51,-0.034 0.795,0.257 0.761,0.77c-0.039,0.62 -0.492,2.036 -1.239,3.987c-1.419,3.692 -2.156,6.414 -2.267,8.168c-0.168,2.58 1.09,4.138 3.29,3.987c2.507,-0.167 4.918,-1.773 9.821,-6.551c0.183,3.379 2.146,5.748 4.786,5.57c2.911,-0.197 5.652,-2.435 9.409,-7.621c-0.159,1.549 -0.566,7.024 3.256,6.762c2.508,-0.165 4.758,-2.297 9.136,-6.497c-0.016,0.303 -0.043,0.605 -0.063,0.906c-0.146,2.065 -0.086,3.549 -0.091,5.041l5.607,-1.662c0.2,-2.992 0.386,-4.905 1.407,-8.881c2.369,-2.829 6.359,-7.516 7.784,-7.607c0.409,-0.035 0.6,0.21 0.561,0.778c-0.157,0.837 -0.59,1.994 -1.436,3.847c-1.552,3.443 -2.632,6.758 -2.74,8.404c-0.181,2.633 1.181,4.231 3.429,4.085c2.776,-0.192 5.911,-2.248 10.099,-6.619c0.12,3.243 2.267,5.783 4.93,5.606c1.428,-0.101 3.163,-0.934 4.88,-2.384c1.676,-1.346 2.727,-2.6 4.353,-5.02c-0.402,6.806 2.86,6.588 3.419,6.55c2.562,-0.17 5.723,-3.261 9.208,-6.732l0.002,-0.002c0.408,3.723 3.048,5.908 6.99,5.641c3.73,-0.252 6.588,-1.936 11.65,-6.896c3.454,-3.831 5.461,-6.325 8.001,-10.148c0.451,1.667 0.807,2.411 2,4.389c1.101,1.821 1.426,2.883 1.351,4.014c-0.137,2.221 -2.445,4.636 -4.484,4.772c-1.135,0.079 -1.696,-0.548 -2.093,-2.22c-0.27,-1.159 -0.644,-1.703 -1.203,-1.669c-0.822,0.057 -3.588,3.424 -3.648,4.202c-0.1,1.394 2.06,2.684 4.317,2.539c5.249,-0.357 11.624,-6.59 11.972,-11.752c0.1,-1.392 -0.234,-2.551 -1.386,-4.425m-236.033,41.646c-0.973,0.065 -1.537,-0.56 -1.47,-1.595c0.135,-2.065 2.48,-4.431 6.919,-6.887c-0.861,2.933 -2.381,8.28 -5.449,8.482m31.673,-25.661c-0.165,2.328 0.467,4.337 1.912,6.241c-1.578,2.366 -2.821,3.477 -4.043,3.557c-1.898,0.131 -2.891,-1.753 -2.658,-5.16c0.289,-4.336 2.408,-11.562 7.658,-11.918c0.518,-0.033 0.827,0 1.063,0.079c-2.588,2.286 -3.74,4.367 -3.932,7.201m109.2,-11.058c-0.294,4.226 -4.041,12.444 -7.72,12.69c-1.373,0.096 -2.261,-1.073 -2.144,-2.887c0.286,-4.231 4.084,-12.39 7.763,-12.643c1.431,-0.093 2.221,0.982 2.101,2.84m51.061,-3.291c-0.281,4.23 -3.866,12.23 -7.496,12.473c-1.433,0.097 -2.267,-0.979 -2.146,-2.833c0.277,-4.129 4.043,-12.499 7.467,-12.729c1.482,-0.101 2.313,1.13 2.175,3.089m21.772,-4.55c1.12,-0.074 1.675,0.76 1.563,2.307c-0.202,3.254 -2.557,5.674 -6.821,7.143c0.398,-6.039 3.361,-9.321 5.258,-9.45" style="fill:#780905;fill-rule:nonzero;"/><path d="M251.65,58.112c-0.931,-1.425 -1.178,-2.232 -1.119,-3.163c0.044,-0.619 0.259,-1.507 0.564,-2.243c0.164,-0.328 0.236,-0.638 0.249,-0.79c0.015,-0.15 -0.082,-0.199 -0.234,-0.187c-0.306,0.013 -3.144,0.57 -5.643,1.41c-1.757,4.368 -5.675,9.376 -8.456,12.396l0,-0.02c-3.272,3.257 -5.175,5.183 -7.985,5.374c-2.764,0.183 -4.482,-1.447 -4.887,-4.555c4.28,-1.573 11.232,-4.352 11.546,-9.199c0.189,-2.63 -1.734,-4.247 -4.804,-4.045c-5.749,0.391 -11.706,7.027 -12.636,13.824c-1.749,1.945 -4.021,4.302 -5.421,4.398c-0.863,0.057 -1.371,-0.732 -1.291,-2.021c0.387,-5.727 8.113,-28.544 8.187,-29.47c0.016,-0.256 -0.125,-0.408 -0.484,-0.378c-1.28,0.133 -3.496,0.703 -5.945,1.43l-4.595,15.307c-1.178,-1.204 -1.928,-1.513 -3.51,-1.405c-5.659,0.38 -11.895,7.005 -13.451,13.819c-0.764,0.919 -4.45,5.11 -6.178,5.222c-0.774,0.054 -1.183,-0.483 -1.113,-1.417c0.036,-0.716 0.722,-2.618 1.801,-5.047c1.61,-3.651 2.584,-6.644 2.67,-8.09c0.135,-1.964 -1.045,-3.324 -2.724,-3.208c-3.217,0.213 -7.104,4.228 -11.328,8.879c0.68,-2.613 2.034,-5.94 3.048,-8.374l-6.151,1.599c-2.418,4.801 -3.794,8.431 -4.485,12.081c-3.427,3.455 -4.511,4.5 -5.684,4.579c-0.928,0.062 -1.482,-0.67 -1.393,-2.066c0.101,-1.544 1.516,-5.853 2.203,-7.75l2.689,-7.522l-1.383,0.087l-5.282,3.183c-0.702,-1.85 -2.116,-2.731 -4.162,-2.596c-4.296,0.291 -12.317,6.231 -13.811,14.093l-0.812,0.866c-2.685,2.854 -4.239,4.088 -5.165,4.149c-0.606,0.043 -0.982,-0.501 -0.925,-1.325c0.065,-0.932 0.521,-2.399 1.547,-4.882c1.468,-3.644 2.132,-5.952 2.251,-7.854c0.154,-2.273 -1.008,-3.836 -2.851,-3.716c-2.611,0.175 -5.216,2.82 -9.9,7.506c0.243,-1.358 0.399,-2.241 0.45,-3.01c0.149,-2.328 -0.909,-3.796 -2.656,-3.68c-2.605,0.178 -6.718,3.949 -9.472,7.114c-0.663,0.713 -0.877,0.982 -1.315,1.477c0.783,-2.673 1.655,-5.049 3.024,-8.115l-6.109,1.592c-2.631,5.124 -3.961,8.474 -4.619,12.173c-3.93,3.813 -4.405,4.261 -5.628,4.338c-1.136,0.078 -1.733,-0.803 -1.637,-2.201c0.101,-1.496 0.593,-2.764 2.838,-8.311l2.74,-6.599l-2.262,0.256c-2.571,4.385 -4.581,6.214 -7.675,6.885c0.895,-2.062 1.364,-3.643 1.429,-4.614c0.084,-1.344 -0.472,-1.974 -1.812,-1.882c-3.826,0.253 -5.243,5.385 -5.323,6.678c-0.091,1.291 0.507,2.122 1.955,2.689c-0.913,1.3 -1.995,2.649 -3.223,3.981l0,-0.013c-0.426,0.387 -0.592,0.605 -1.086,1.046c-2.562,2.642 -3.957,3.659 -5.128,3.739c-0.968,0.064 -1.523,-0.768 -1.429,-2.268c0.133,-1.856 1.548,-5.594 5.092,-15.24l-6.894,1.85l-3.976,10.957c-0.633,1.784 -4.067,6.079 -6.017,6.211c-1.122,0.074 -1.72,-0.806 -1.619,-2.307c0.224,-3.459 4.451,-14.07 5.119,-15.756l-6.726,1.789c-2.046,4.851 -3.366,8.716 -4.021,11.851c-2.261,2.498 -3.493,3.04 -4.417,3.154c-1.06,0.02 -1.904,-0.387 -2.574,-1.007c2.063,-4.815 3.111,-8.371 3.321,-11.731c0.108,-1.394 0.233,-3.152 -4.323,-2.841c-7.265,0.49 -13.691,6.789 -14.564,14.166c-1.726,2.043 -3.322,3.351 -6.048,5.101c0.634,-2.001 1.217,-3.782 2.152,-6.204c0.123,-0.426 0.894,-2.123 0.922,-2.532c0.025,-0.362 -0.115,-0.504 -0.842,-0.356l-4.745,0.989c-3.106,4.622 -6.644,7.385 -9.815,7.594c-3.882,0.262 -6.151,-3.026 -5.79,-8.441c0.579,-8.623 7.501,-20.744 15.005,-21.253c3.019,-0.204 4.968,1.672 4.779,4.66c-0.291,4.186 -3.565,8.872 -6.256,9.052c-0.617,0.042 -1.87,-0.182 -1.781,-1.52c0.044,-0.569 -0.245,-0.858 -0.709,-0.828c-1.019,0.069 -2.028,1.367 -2.113,2.71c-0.144,2.221 1.988,3.767 5.056,3.564c5.256,-0.354 10.291,-5.682 10.672,-11.352c0.354,-5.264 -3.338,-8.607 -9.062,-8.226c-9.35,0.636 -21.964,11.294 -22.834,24.344c-0.506,7.485 3.219,12.677 8.889,12.302c3.932,-0.27 8.754,-3.938 10.504,-6.52c-1.107,2.955 -1.432,3.904 -2.254,6.269c-3.956,2.165 -9.327,5.506 -9.585,9.684c-0.173,2.27 1.378,3.501 4.085,3.318c3.322,-0.225 6.457,-2.129 8.958,-5.43c2.012,-2.606 3.029,-4.929 4.089,-9.422c3.482,-2.042 4.827,-2.858 6.682,-4.808c0.359,3.667 2.6,5.831 5.926,5.606c3.066,-0.209 5.949,-2.202 8.594,-6.02c1.21,0.891 2.157,1.179 3.485,1.148c0.869,-0.111 2.433,-0.582 4.144,-2.063c0.007,0.009 -0.002,0.023 0.006,0.04c-0.24,3.607 1.242,5.77 3.79,5.593c2.705,-0.181 5.476,-2.117 9.539,-6.55c-0.212,3.255 0.834,5.803 3.694,5.611c2.243,-0.153 4.92,-1.974 9.915,-6.781c2.67,-2.698 4.172,-4.546 5.54,-6.847c1.711,-0.425 2.764,-0.852 4.123,-1.615c-2.872,4.304 -4.253,7.376 -4.415,9.799c-0.166,2.529 1.287,4.38 3.331,4.246c2.305,-0.161 5.213,-2.081 9.804,-6.588c-0.026,0.332 -0.053,0.66 -0.084,1.001c-0.101,1.755 -0.116,3.348 -0.108,4.837l5.599,-1.713c0.278,-3.357 0.675,-5.54 1.716,-9.57c3.971,-4.736 6.648,-6.712 7.26,-6.751c0.465,-0.033 0.542,0.272 0.502,0.834c-0.03,0.571 -1.01,4.489 -1.405,6.002l-3.104,10.532l6.4,-1.562c2.012,-6.4 2.274,-7.287 3.207,-10.541c2.942,-3.684 5.422,-5.857 6.4,-5.92c0.502,-0.041 0.798,0.252 0.762,0.77c-0.049,0.615 -0.502,2.038 -1.242,3.983c-1.412,3.692 -2.147,6.408 -2.277,8.171c-0.166,2.576 1.089,4.134 3.29,3.986c2.527,-0.165 4.93,-1.779 9.831,-6.551c0.185,3.377 2.133,5.748 4.788,5.572c2.906,-0.201 5.655,-2.442 9.399,-7.622c-0.146,1.545 -0.569,7.021 3.266,6.764c2.513,-0.169 4.746,-2.302 9.146,-6.496c-0.036,0.295 -0.062,0.597 -0.074,0.897c-0.145,2.068 -0.087,3.55 -0.09,5.044l5.605,-1.66c0.202,-2.998 0.39,-4.912 1.41,-8.881c2.383,-2.829 6.357,-7.515 7.78,-7.614c0.41,-0.024 0.596,0.216 0.557,0.784c-0.159,0.834 -0.583,1.993 -1.417,3.844c-1.559,3.446 -2.64,6.754 -2.756,8.403c-0.181,2.636 1.192,4.238 3.433,4.085c2.774,-0.187 5.911,-2.247 10.099,-6.621c0.109,3.245 2.28,5.788 4.92,5.612c1.432,-0.098 3.156,-0.934 4.896,-2.388c1.656,-1.34 2.714,-2.593 4.352,-5.013c-0.404,6.804 2.853,6.584 3.422,6.543c2.552,-0.171 5.713,-3.258 9.193,-6.727l0,-0.003c0.414,3.725 3.045,5.906 6.997,5.64c3.738,-0.252 6.581,-1.931 11.653,-6.898l0,-0.002c3.458,-3.823 5.453,-6.324 7.992,-10.145c0.459,1.666 0.813,2.41 2.001,4.387c1.094,1.83 1.428,2.882 1.356,4.018c-0.149,2.22 -2.438,4.632 -4.498,4.771c-1.121,0.081 -1.683,-0.552 -2.078,-2.223c-0.284,-1.158 -0.651,-1.7 -1.201,-1.663c-0.825,0.055 -3.592,3.426 -3.644,4.202c-0.092,1.389 2.058,2.684 4.301,2.531c5.258,-0.35 11.629,-6.583 11.978,-11.742c0.091,-1.395 -0.238,-2.556 -1.378,-4.431m-236.042,41.649c-0.959,0.068 -1.538,-0.563 -1.478,-1.594c0.152,-2.063 2.494,-4.432 6.937,-6.892c-0.864,2.937 -2.395,8.278 -5.459,8.486m31.671,-25.662c-0.156,2.326 0.472,4.337 1.919,6.24c-1.579,2.368 -2.83,3.482 -4.044,3.563c-1.889,0.126 -2.886,-1.759 -2.658,-5.164c0.296,-4.331 2.405,-11.566 7.665,-11.919c0.516,-0.032 0.807,-0.002 1.058,0.08c-2.6,2.281 -3.747,4.365 -3.94,7.2m109.203,-11.058c-0.284,4.232 -4.041,12.442 -7.717,12.693c-1.384,0.091 -2.256,-1.078 -2.15,-2.888c0.284,-4.233 4.097,-12.392 7.769,-12.647c1.436,-0.09 2.226,0.979 2.098,2.842m51.067,-3.289c-0.281,4.233 -3.868,12.226 -7.494,12.472c-1.431,0.096 -2.272,-0.982 -2.147,-2.833c0.27,-4.13 4.031,-12.505 7.454,-12.732c1.482,-0.096 2.326,1.131 2.187,3.093m21.764,-4.555c1.125,-0.074 1.679,0.768 1.573,2.313c-0.217,3.248 -2.554,5.669 -6.836,7.137c0.408,-6.036 3.378,-9.321 5.263,-9.45" style="fill:#fff161;fill-rule:nonzero;"/><path d="M61.426,49.093c0.253,-0.194 0.494,-0.391 0.744,-0.575c1.685,1.33 3.246,2.039 4.692,2.148c1.455,0.1 2.752,-0.233 3.916,-1.028c1.125,-0.768 1.771,-1.565 1.905,-2.431c0.145,-0.856 0.022,-1.59 -0.348,-2.197c-0.454,-0.701 -1.08,-1.117 -1.899,-1.218c-0.53,-0.064 -1.483,0.017 -2.86,0.275c-0.743,0.143 -1.485,0.286 -2.232,0.451c-2.201,0.458 -3.927,0.653 -5.147,0.491c-1.236,-0.162 -2.235,-0.732 -3.031,-1.746c-0.834,-1.069 -1.138,-2.445 -0.858,-4.126c0.267,-1.681 1.467,-3.307 3.573,-4.75c1.078,-0.742 2.21,-1.31 3.401,-1.701c1.183,-0.396 1.838,-0.622 1.99,-0.712c0.32,-0.206 0.51,-0.42 0.542,-0.65c0.034,-0.224 0.015,-0.486 -0.053,-0.78c0.299,-0.187 0.605,-0.373 0.908,-0.553c1.042,1.734 2.063,3.464 3.101,5.208c-0.274,0.158 -0.539,0.319 -0.812,0.49c-1.103,-0.974 -2.416,-1.593 -3.945,-1.828c-1.507,-0.235 -3.001,0.118 -4.397,1.069c-0.973,0.67 -1.583,1.428 -1.848,2.24c-0.265,0.811 -0.166,1.523 0.255,2.116c0.524,0.709 1.164,1.057 1.931,1.044c0.749,0.007 2.243,-0.264 4.453,-0.708c0.893,-0.168 1.783,-0.34 2.658,-0.485c1.18,-0.202 2.187,-0.227 3.028,-0.078c1.569,0.273 2.726,1.079 3.485,2.375c0.715,1.212 0.826,2.669 0.46,4.353c-0.4,1.696 -1.674,3.22 -3.855,4.699c-0.504,0.347 -1.036,0.652 -1.598,0.927c-0.574,0.279 -1.167,0.507 -1.788,0.694c-0.205,0.063 -0.397,0.121 -0.585,0.188c-0.138,0.05 -0.263,0.108 -0.388,0.169c-0.114,0.058 -0.215,0.115 -0.28,0.166c-0.253,0.19 -0.368,0.395 -0.361,0.596c0.002,0.205 0.062,0.46 0.185,0.757c-0.241,0.179 -0.482,0.359 -0.708,0.544c-1.41,-1.812 -2.821,-3.626 -4.234,-5.434" style="fill:#780905;fill-rule:nonzero;"/><path d="M79.312,44.194c0.617,-0.397 0.991,-0.939 1.128,-1.646c0.089,-0.45 0.087,-1.332 0.017,-2.653c-0.279,-5.577 -0.265,-11.224 0.07,-16.919c0.302,-0.134 0.605,-0.266 0.901,-0.395c4.335,3.434 8.427,7.064 12.253,10.857c1.279,1.277 2.176,2.09 2.677,2.419c0.504,0.329 1.082,0.377 1.72,0.145c0.08,0.225 0.152,0.447 0.229,0.676c-3.055,0.995 -6.057,2.136 -9.031,3.411c-0.087,-0.217 -0.183,-0.431 -0.27,-0.645c0.89,-0.426 1.446,-0.739 1.687,-0.965c0.241,-0.225 0.272,-0.564 0.097,-1.007c-0.08,-0.203 -0.276,-0.478 -0.601,-0.832c-0.187,-0.201 -0.436,-0.44 -0.727,-0.725c-0.461,-0.415 -0.93,-0.834 -1.392,-1.248c-2.148,0.908 -4.293,1.888 -6.411,2.933c0.073,1.196 0.132,1.972 0.164,2.329c0.082,0.764 0.196,1.287 0.349,1.575c0.179,0.361 0.575,0.484 1.17,0.389c0.346,-0.069 0.847,-0.248 1.464,-0.537c0.094,0.213 0.203,0.422 0.309,0.64c-1.849,0.872 -3.671,1.819 -5.468,2.811c-0.106,-0.198 -0.223,-0.405 -0.335,-0.613m7.916,-10.368c-1.779,-1.573 -3.596,-3.121 -5.472,-4.631c-0.088,0.049 -0.164,0.081 -0.256,0.122c-0.017,2.375 0.012,4.739 0.092,7.09c1.855,-0.917 3.737,-1.776 5.636,-2.581" style="fill:#780905;fill-rule:nonzero;"/><path d="M101.315,16.24c0.062,0.219 0.106,0.445 0.163,0.657c-1.185,0.361 -1.935,0.648 -2.272,0.848c-0.306,0.212 -0.417,0.532 -0.287,0.968c0.032,0.14 0.085,0.268 0.138,0.379c0.055,0.11 0.142,0.222 0.264,0.345c2.646,2.838 5.145,5.748 7.519,8.73c-0.017,0.004 -0.039,0.007 -0.063,0.007c0.641,-3.363 1.386,-6.729 2.241,-10.087c0.058,-0.229 0.106,-0.451 0.137,-0.682c0.065,-0.374 0.077,-0.658 0.044,-0.874c-0.104,-0.522 -0.348,-0.805 -0.745,-0.869c-0.405,-0.056 -1.214,-0.002 -2.388,0.179c-0.04,-0.222 -0.082,-0.442 -0.137,-0.666c2.402,-0.502 4.824,-0.941 7.248,-1.313c0.048,0.225 0.077,0.447 0.106,0.675c-0.812,0.192 -1.412,0.499 -1.766,0.879c-0.364,0.391 -0.665,1.011 -0.899,1.871c-1.583,5.815 -2.821,11.655 -3.72,17.479c-0.253,0.058 -0.504,0.123 -0.749,0.187c-3.791,-4.786 -7.953,-9.395 -12.446,-13.771c-0.555,-0.53 -1.054,-0.873 -1.497,-1.032c-0.463,-0.158 -1.069,-0.137 -1.84,0.078c-0.078,-0.217 -0.157,-0.428 -0.227,-0.646c3.682,-1.284 7.409,-2.397 11.176,-3.342" style="fill:#780905;fill-rule:nonzero;"/><path d="M117.664,32.219c-0.031,-0.232 -0.068,-0.458 -0.082,-0.695c0.823,-0.143 1.409,-0.323 1.751,-0.558c0.512,-0.351 0.726,-0.916 0.634,-1.711c-0.494,-4.467 -0.99,-8.934 -1.491,-13.395c-0.08,-0.807 -0.468,-1.309 -1.162,-1.51c-0.388,-0.124 -1.094,-0.152 -2.084,-0.063c-0.026,-0.236 -0.062,-0.469 -0.089,-0.699c6.573,-0.891 13.205,-1.275 19.843,-1.132c-0.031,1.869 -0.07,3.741 -0.118,5.611c-0.265,-0.007 -0.533,-0.013 -0.8,-0.015c-0.391,-1.799 -1.113,-3.036 -2.145,-3.699c-1.051,-0.647 -2.956,-0.968 -5.704,-0.837c-1.048,0.045 -1.71,0.174 -1.973,0.373c-0.279,0.193 -0.4,0.552 -0.356,1.08c0.137,2.137 0.279,4.283 0.422,6.422c1.835,-0.102 3.057,-0.434 3.686,-1.051c0.641,-0.617 1.109,-1.711 1.433,-3.299c0.273,-0.005 0.565,-0.012 0.835,-0.014c0.062,3.128 0.117,6.266 0.168,9.397c-0.272,0.007 -0.53,0.014 -0.79,0.017c-0.251,-1.579 -0.74,-2.684 -1.456,-3.309c-0.72,-0.62 -1.992,-0.894 -3.814,-0.774c0.159,2.244 0.299,4.477 0.451,6.718c0.054,0.591 0.238,0.978 0.576,1.168c0.337,0.196 0.995,0.264 2.002,0.215c1.898,-0.086 3.433,-0.451 4.646,-1.143c1.207,-0.687 2.294,-1.966 3.322,-3.83c0.289,0.01 0.569,0.011 0.86,0.026c-0.486,1.912 -0.946,3.831 -1.392,5.753c-5.74,-0.14 -11.475,0.182 -17.173,0.954" style="fill:#780905;fill-rule:nonzero;"/><path d="M150.451,13.722c-0.041,0.231 -0.067,0.466 -0.111,0.699c-1.318,-0.151 -2.227,-0.099 -2.703,0.143c-0.48,0.24 -0.788,0.896 -0.904,1.947c-0.361,3.088 -0.711,6.179 -1.085,9.265c-0.158,1.404 -0.105,2.513 0.174,3.322c0.478,1.502 1.617,2.367 3.439,2.649c2.248,0.349 3.903,-0.125 5.026,-1.522c0.622,-0.762 1.099,-1.909 1.414,-3.445c0.572,-2.787 1.162,-5.558 1.711,-8.337c0.217,-0.981 0.131,-1.698 -0.236,-2.158c-0.368,-0.452 -1.202,-0.853 -2.488,-1.167c0.04,-0.229 0.083,-0.46 0.12,-0.697c2.508,0.45 4.993,0.973 7.474,1.572c-0.06,0.225 -0.11,0.454 -0.175,0.685c-1.102,-0.092 -1.859,-0.043 -2.268,0.125c-0.385,0.165 -0.682,0.685 -0.879,1.565c-0.634,2.898 -1.273,5.797 -1.902,8.693c-0.501,2.307 -1.512,3.952 -2.97,4.973c-1.475,1.014 -3.441,1.289 -5.995,0.907c-3.338,-0.486 -5.528,-1.629 -6.641,-3.643c-0.586,-1.068 -0.839,-2.401 -0.731,-3.999c0.227,-3.099 0.451,-6.19 0.687,-9.293c0.077,-1.038 -0.043,-1.708 -0.359,-1.998c-0.326,-0.291 -1.082,-0.538 -2.277,-0.711c0.022,-0.237 0.031,-0.468 0.048,-0.706c3.887,0.206 7.769,0.575 11.631,1.131" style="fill:#780905;fill-rule:nonzero;"/><path d="M159.685,34.001c0.993,0.205 1.713,0.222 2.149,0.029c0.436,-0.2 0.81,-0.795 1.09,-1.789c1.117,-3.947 2.247,-7.887 3.366,-11.843c0.285,-1.028 0.229,-1.769 -0.154,-2.219c-0.273,-0.299 -0.971,-0.644 -2.107,-1.019c0.07,-0.225 0.116,-0.462 0.18,-0.684c3.629,0.933 7.216,2.03 10.758,3.283c2.207,0.786 3.91,1.663 5.108,2.568c2.301,1.795 2.983,3.678 2.157,5.537c-0.617,1.388 -1.752,2.175 -3.357,2.441c-1.239,0.187 -2.412,0.154 -3.561,-0.104c1.183,3.304 2.207,6.609 3.052,9.911c0.08,0.269 0.169,0.48 0.316,0.618c0.147,0.14 0.337,0.277 0.569,0.41c-0.089,0.201 -0.179,0.403 -0.277,0.603c-1.899,-0.902 -3.822,-1.747 -5.749,-2.534c-1.08,-3.561 -2.348,-7.123 -3.817,-10.669c-0.005,-0.002 -0.005,-0.005 -0.009,-0.002c-0.579,1.723 -1.153,3.446 -1.726,5.171c-0.306,0.925 -0.345,1.61 -0.121,2.045c0.231,0.434 0.836,0.842 1.826,1.233c-0.091,0.215 -0.163,0.436 -0.248,0.663c-3.163,-1.142 -6.377,-2.131 -9.63,-2.969c0.072,-0.226 0.129,-0.456 0.185,-0.68m14.564,-5.508c1.038,-0.129 1.89,-0.998 2.518,-2.638c0.397,-1.007 0.53,-1.866 0.423,-2.58c-0.221,-1.216 -1.139,-2.138 -2.759,-2.71c-0.869,-0.308 -1.488,-0.418 -1.809,-0.329c-0.345,0.083 -0.576,0.325 -0.704,0.733c-0.744,2.235 -1.498,4.479 -2.241,6.714c2.03,0.645 3.543,0.937 4.572,0.81" style="fill:#780905;fill-rule:nonzero;"/><path d="M183.738,36.845c0.291,0.135 0.564,0.274 0.838,0.414c-0.49,2.088 -0.467,3.796 0.053,5.148c0.516,1.352 1.383,2.365 2.6,3.073c1.18,0.689 2.176,0.92 3.015,0.673c0.831,-0.241 1.45,-0.658 1.833,-1.26c0.439,-0.709 0.549,-1.455 0.285,-2.234c-0.186,-0.514 -0.663,-1.342 -1.497,-2.471c-0.444,-0.612 -0.894,-1.217 -1.368,-1.815c-1.355,-1.786 -2.258,-3.245 -2.627,-4.419c-0.369,-1.17 -0.284,-2.324 0.281,-3.467c0.611,-1.217 1.711,-2.093 3.328,-2.581c1.61,-0.486 3.573,-0.118 5.786,1.165c1.121,0.646 2.135,1.421 3.009,2.322c0.878,0.906 1.372,1.41 1.526,1.5c0.323,0.214 0.592,0.286 0.819,0.219c0.219,-0.062 0.451,-0.195 0.692,-0.385c0.298,0.196 0.604,0.394 0.901,0.596c-1.111,1.681 -2.234,3.362 -3.358,5.045c-0.262,-0.174 -0.531,-0.352 -0.802,-0.528c0.394,-1.422 0.374,-2.88 -0.074,-4.364c-0.46,-1.474 -1.423,-2.659 -2.879,-3.511c-1.022,-0.591 -1.966,-0.827 -2.82,-0.703c-0.843,0.12 -1.428,0.509 -1.775,1.152c-0.42,0.777 -0.468,1.502 -0.123,2.185c0.308,0.68 1.2,1.91 2.551,3.713c0.552,0.729 1.075,1.456 1.608,2.19c0.686,0.976 1.163,1.893 1.397,2.721c0.449,1.543 0.231,2.939 -0.612,4.184c-0.783,1.169 -2.055,1.898 -3.759,2.272c-1.718,0.367 -3.652,-0.136 -5.93,-1.46c-0.523,-0.299 -1.031,-0.649 -1.525,-1.042c-0.482,-0.393 -0.947,-0.827 -1.381,-1.304c-0.14,-0.15 -0.279,-0.303 -0.431,-0.454c-0.089,-0.09 -0.19,-0.184 -0.292,-0.261c-0.111,-0.079 -0.197,-0.14 -0.272,-0.179c-0.272,-0.141 -0.513,-0.172 -0.687,-0.072c-0.183,0.096 -0.377,0.258 -0.602,0.496c-0.25,-0.133 -0.525,-0.263 -0.779,-0.395c1.029,-2.058 2.051,-4.111 3.071,-6.163" style="fill:#780905;fill-rule:nonzero;"/><path d="M59.667,47.973c0.243,-0.188 0.494,-0.378 0.74,-0.571c1.675,1.333 3.248,2.041 4.691,2.15c1.458,0.104 2.755,-0.238 3.914,-1.027c1.125,-0.767 1.766,-1.57 1.907,-2.434c0.134,-0.853 0.027,-1.59 -0.361,-2.19c-0.448,-0.709 -1.065,-1.117 -1.884,-1.222c-0.534,-0.063 -1.489,0.015 -2.87,0.276c-0.737,0.138 -1.479,0.285 -2.214,0.445c-2.221,0.461 -3.931,0.66 -5.171,0.498c-1.217,-0.161 -2.234,-0.732 -3.022,-1.744c-0.831,-1.076 -1.128,-2.449 -0.872,-4.133c0.287,-1.678 1.482,-3.303 3.599,-4.751c1.071,-0.737 2.215,-1.303 3.384,-1.698c1.193,-0.394 1.853,-0.618 2.002,-0.716c0.331,-0.201 0.504,-0.413 0.538,-0.639c0.029,-0.235 0.019,-0.493 -0.051,-0.79c0.302,-0.182 0.605,-0.367 0.904,-0.549c1.039,1.734 2.068,3.474 3.098,5.204c-0.274,0.166 -0.539,0.328 -0.794,0.486c-1.121,-0.966 -2.428,-1.58 -3.948,-1.816c-1.52,-0.237 -3.012,0.114 -4.393,1.066c-0.973,0.669 -1.604,1.422 -1.862,2.241c-0.268,0.812 -0.176,1.52 0.272,2.11c0.509,0.712 1.152,1.06 1.908,1.049c0.757,0.008 2.244,-0.264 4.473,-0.71c0.867,-0.168 1.764,-0.339 2.634,-0.484c1.181,-0.209 2.198,-0.228 3.038,-0.077c1.574,0.267 2.728,1.081 3.479,2.378c0.709,1.213 0.846,2.663 0.46,4.353c-0.392,1.693 -1.671,3.218 -3.845,4.698c-0.499,0.338 -1.024,0.648 -1.602,0.923c-0.564,0.277 -1.164,0.507 -1.781,0.692c-0.2,0.064 -0.397,0.129 -0.597,0.186c-0.14,0.055 -0.261,0.113 -0.376,0.172c-0.118,0.059 -0.215,0.117 -0.28,0.169c-0.253,0.191 -0.383,0.391 -0.381,0.597c0.022,0.205 0.08,0.457 0.198,0.755c-0.248,0.184 -0.472,0.361 -0.708,0.541c-1.408,-1.808 -2.827,-3.62 -4.227,-5.438" style="fill:#fff161;fill-rule:nonzero;"/><path d="M77.544,43.079c0.626,-0.394 0.995,-0.941 1.121,-1.645c0.09,-0.447 0.093,-1.33 0.031,-2.65c-0.275,-5.574 -0.266,-11.222 0.07,-16.923c0.296,-0.135 0.598,-0.266 0.896,-0.391c4.332,3.431 8.433,7.056 12.268,10.854c1.279,1.282 2.163,2.093 2.667,2.416c0.511,0.333 1.081,0.381 1.718,0.148c0.065,0.228 0.147,0.451 0.221,0.672c-3.043,1 -6.05,2.147 -9.016,3.419c-0.099,-0.218 -0.191,-0.437 -0.28,-0.651c0.885,-0.423 1.448,-0.734 1.696,-0.959c0.234,-0.226 0.258,-0.562 0.078,-1.01c-0.07,-0.201 -0.277,-0.479 -0.581,-0.824c-0.198,-0.212 -0.443,-0.448 -0.738,-0.733c-0.453,-0.419 -0.918,-0.837 -1.38,-1.248c-2.173,0.902 -4.308,1.887 -6.426,2.932c0.074,1.198 0.137,1.971 0.161,2.328c0.087,0.762 0.212,1.289 0.346,1.58c0.177,0.357 0.579,0.478 1.186,0.378c0.35,-0.063 0.834,-0.242 1.456,-0.534c0.096,0.212 0.207,0.424 0.308,0.636c-1.846,0.89 -3.656,1.827 -5.46,2.823c-0.106,-0.204 -0.227,-0.41 -0.342,-0.618m7.913,-10.361c-1.771,-1.577 -3.598,-3.122 -5.463,-4.632c-0.089,0.04 -0.171,0.076 -0.255,0.116c-0.027,2.376 0.004,4.737 0.089,7.087c1.853,-0.911 3.735,-1.766 5.629,-2.571" style="fill:#fff161;fill-rule:nonzero;"/><path d="M99.548,15.128c0.054,0.224 0.109,0.441 0.16,0.661c-1.181,0.352 -1.931,0.64 -2.251,0.847c-0.323,0.205 -0.429,0.528 -0.309,0.965c0.044,0.14 0.082,0.264 0.16,0.376c0.045,0.11 0.144,0.229 0.245,0.341c2.641,2.843 5.145,5.755 7.517,8.74c-0.011,-0.003 -0.042,0.005 -0.047,0.009c0.622,-3.368 1.373,-6.732 2.224,-10.092c0.063,-0.227 0.116,-0.452 0.15,-0.681c0.062,-0.374 0.072,-0.667 0.033,-0.882c-0.094,-0.515 -0.347,-0.808 -0.746,-0.864c-0.41,-0.056 -1.21,-0.001 -2.38,0.184c-0.045,-0.224 -0.089,-0.444 -0.137,-0.664c2.41,-0.51 4.83,-0.949 7.246,-1.316c0.043,0.22 0.076,0.45 0.106,0.673c-0.826,0.196 -1.406,0.496 -1.776,0.884c-0.354,0.38 -0.657,1.006 -0.893,1.87c-1.576,5.813 -2.82,11.65 -3.712,17.475c-0.259,0.059 -0.51,0.12 -0.757,0.182c-3.798,-4.78 -7.946,-9.38 -12.449,-13.766c-0.553,-0.53 -1.041,-0.872 -1.504,-1.032c-0.45,-0.161 -1.06,-0.14 -1.831,0.076c-0.075,-0.212 -0.149,-0.424 -0.23,-0.639c3.685,-1.289 7.415,-2.4 11.181,-3.347" style="fill:#fff161;fill-rule:nonzero;"/><path d="M115.9,31.106c-0.029,-0.229 -0.065,-0.466 -0.087,-0.692c0.834,-0.146 1.424,-0.331 1.757,-0.554c0.513,-0.356 0.73,-0.928 0.638,-1.723c-0.501,-4.466 -0.993,-8.926 -1.501,-13.401c-0.084,-0.796 -0.462,-1.304 -1.156,-1.498c-0.391,-0.131 -1.087,-0.154 -2.09,-0.06c-0.026,-0.237 -0.062,-0.475 -0.096,-0.706c6.59,-0.888 13.222,-1.267 19.865,-1.127c-0.046,1.868 -0.078,3.739 -0.135,5.609c-0.251,-0.005 -0.533,-0.013 -0.798,-0.018c-0.385,-1.794 -1.113,-3.033 -2.15,-3.694c-1.032,-0.651 -2.946,-0.977 -5.696,-0.845c-1.05,0.052 -1.713,0.189 -1.974,0.374c-0.273,0.198 -0.401,0.557 -0.365,1.079c0.152,2.143 0.294,4.286 0.435,6.432c1.834,-0.11 3.056,-0.436 3.695,-1.058c0.631,-0.614 1.099,-1.713 1.428,-3.295c0.28,-0.003 0.555,-0.019 0.842,-0.017c0.045,3.13 0.099,6.263 0.149,9.397c-0.259,0.007 -0.523,0.009 -0.781,0.02c-0.255,-1.579 -0.739,-2.684 -1.464,-3.305c-0.709,-0.624 -1.991,-0.902 -3.8,-0.784c0.154,2.247 0.305,4.482 0.443,6.725c0.041,0.59 0.241,0.981 0.578,1.17c0.328,0.193 1.002,0.258 2.002,0.207c1.892,-0.079 3.432,-0.446 4.637,-1.139c1.212,-0.689 2.308,-1.968 3.325,-3.83c0.292,0.004 0.573,0.016 0.861,0.026c-0.482,1.916 -0.95,3.833 -1.393,5.751c-5.736,-0.133 -11.478,0.19 -17.169,0.956" style="fill:#fff161;fill-rule:nonzero;"/><path d="M148.683,12.609c-0.034,0.233 -0.065,0.47 -0.101,0.695c-1.324,-0.147 -2.237,-0.091 -2.716,0.147c-0.475,0.243 -0.767,0.891 -0.899,1.952c-0.364,3.083 -0.726,6.174 -1.087,9.257c-0.154,1.409 -0.086,2.517 0.169,3.329c0.489,1.5 1.624,2.362 3.443,2.645c2.251,0.354 3.909,-0.122 5.032,-1.519c0.614,-0.765 1.099,-1.911 1.408,-3.449c0.58,-2.779 1.161,-5.562 1.731,-8.338c0.197,-0.976 0.118,-1.694 -0.25,-2.151c-0.372,-0.456 -1.203,-0.861 -2.487,-1.17c0.041,-0.239 0.075,-0.462 0.118,-0.698c2.496,0.448 4.998,0.975 7.47,1.569c-0.056,0.229 -0.101,0.461 -0.157,0.687c-1.123,-0.087 -1.872,-0.048 -2.279,0.122c-0.402,0.168 -0.687,0.691 -0.879,1.561c-0.642,2.9 -1.272,5.796 -1.904,8.695c-0.502,2.315 -1.53,3.961 -2.974,4.968c-1.474,1.026 -3.439,1.295 -5.992,0.918c-3.337,-0.486 -5.533,-1.633 -6.651,-3.645c-0.589,-1.067 -0.827,-2.397 -0.72,-4.003c0.224,-3.091 0.457,-6.189 0.684,-9.286c0.075,-1.044 -0.046,-1.711 -0.362,-2.007c-0.32,-0.293 -1.072,-0.53 -2.26,-0.697c0,-0.235 0.024,-0.475 0.029,-0.707c3.896,0.197 7.766,0.567 11.634,1.125" style="fill:#fff161;fill-rule:nonzero;"/><path d="M157.918,32.887c0.993,0.212 1.706,0.224 2.162,0.03c0.434,-0.201 0.793,-0.796 1.079,-1.785c1.119,-3.95 2.241,-7.898 3.353,-11.847c0.295,-1.031 0.252,-1.77 -0.152,-2.22c-0.273,-0.298 -0.96,-0.649 -2.092,-1.015c0.063,-0.236 0.121,-0.462 0.185,-0.693c3.618,0.938 7.21,2.034 10.749,3.29c2.205,0.785 3.919,1.659 5.107,2.568c2.313,1.796 2.992,3.673 2.154,5.542c-0.62,1.382 -1.745,2.173 -3.35,2.436c-1.231,0.185 -2.417,0.151 -3.561,-0.103c1.181,3.297 2.202,6.609 3.063,9.91c0.052,0.266 0.158,0.478 0.309,0.616c0.141,0.134 0.322,0.281 0.565,0.413c-0.082,0.202 -0.186,0.401 -0.292,0.604c-1.898,-0.908 -3.807,-1.752 -5.746,-2.532c-1.072,-3.567 -2.349,-7.132 -3.81,-10.672c0,0 -0.007,-0.005 -0.01,-0.008c-0.568,1.724 -1.148,3.447 -1.712,5.173c-0.316,0.929 -0.358,1.61 -0.116,2.044c0.224,0.44 0.831,0.84 1.804,1.227c-0.074,0.229 -0.156,0.449 -0.238,0.672c-3.168,-1.142 -6.385,-2.13 -9.617,-2.968c0.054,-0.234 0.116,-0.455 0.166,-0.682m14.579,-5.509c1.028,-0.125 1.867,-0.996 2.506,-2.635c0.393,-1.005 0.532,-1.868 0.416,-2.584c-0.221,-1.214 -1.142,-2.134 -2.756,-2.708c-0.87,-0.309 -1.485,-0.415 -1.817,-0.328c-0.33,0.079 -0.563,0.323 -0.701,0.731c-0.745,2.238 -1.484,4.481 -2.237,6.722c2.027,0.646 3.545,0.932 4.589,0.802" style="fill:#fff161;fill-rule:nonzero;"/><path d="M181.976,35.727c0.272,0.138 0.557,0.28 0.824,0.423c-0.477,2.084 -0.455,3.792 0.06,5.143c0.526,1.353 1.381,2.362 2.603,3.08c1.183,0.68 2.183,0.917 3.014,0.668c0.838,-0.241 1.45,-0.662 1.839,-1.267c0.443,-0.705 0.544,-1.446 0.28,-2.231c-0.179,-0.51 -0.673,-1.338 -1.504,-2.472c-0.439,-0.609 -0.892,-1.212 -1.357,-1.811c-1.367,-1.787 -2.258,-3.249 -2.641,-4.415c-0.366,-1.17 -0.28,-2.332 0.297,-3.472c0.609,-1.217 1.696,-2.095 3.322,-2.58c1.617,-0.485 3.576,-0.117 5.795,1.16c1.121,0.651 2.131,1.431 3.008,2.331c0.869,0.9 1.368,1.41 1.515,1.498c0.327,0.21 0.593,0.283 0.822,0.215c0.226,-0.065 0.455,-0.191 0.686,-0.383c0.314,0.197 0.611,0.391 0.916,0.596c-1.13,1.684 -2.243,3.363 -3.356,5.043c-0.261,-0.177 -0.545,-0.354 -0.815,-0.53c0.408,-1.42 0.386,-2.878 -0.082,-4.355c-0.446,-1.484 -1.417,-2.667 -2.874,-3.515c-1.022,-0.591 -1.967,-0.824 -2.803,-0.707c-0.85,0.126 -1.445,0.512 -1.797,1.157c-0.413,0.778 -0.446,1.501 -0.121,2.179c0.32,0.686 1.207,1.909 2.564,3.718c0.54,0.726 1.075,1.461 1.595,2.182c0.701,0.987 1.169,1.895 1.403,2.721c0.453,1.552 0.235,2.947 -0.615,4.192c-0.788,1.163 -2.05,1.9 -3.755,2.271c-1.703,0.372 -3.654,-0.139 -5.929,-1.459c-0.525,-0.311 -1.034,-0.653 -1.511,-1.042c-0.499,-0.392 -0.954,-0.827 -1.391,-1.302c-0.132,-0.151 -0.281,-0.31 -0.428,-0.459c-0.099,-0.092 -0.198,-0.177 -0.301,-0.263c-0.104,-0.078 -0.191,-0.14 -0.273,-0.175c-0.272,-0.146 -0.501,-0.17 -0.689,-0.078c-0.175,0.1 -0.378,0.266 -0.592,0.502c-0.256,-0.14 -0.512,-0.26 -0.782,-0.395c1.023,-2.059 2.052,-4.112 3.073,-6.168" style="fill:#fff161;fill-rule:nonzero;"/><path d="M88.835,99.838c0.586,-0.716 1.275,-1.078 2.102,-1.08c0.402,-0.002 0.765,0.104 1.084,0.302c0.2,0.118 0.441,0.333 0.742,0.65l-0.008,-2.845c-0.002,-0.391 -0.081,-0.637 -0.226,-0.724c-0.151,-0.096 -0.474,-0.151 -0.949,-0.168l-0.002,-0.372l3.344,-0.014l0.048,8.934c-0.004,0.32 0.063,0.541 0.178,0.662c0.126,0.121 0.354,0.194 0.712,0.227l0.001,0.357c-0.871,0.087 -1.426,0.156 -1.674,0.201c-0.256,0.045 -0.694,0.154 -1.338,0.333l-0.004,-1.025c-0.289,0.308 -0.559,0.533 -0.803,0.681c-0.381,0.229 -0.798,0.35 -1.235,0.354c-0.757,0.001 -1.43,-0.315 -1.979,-0.954c-0.568,-0.64 -0.858,-1.508 -0.86,-2.611c-0.014,-1.228 0.284,-2.2 0.867,-2.908m3.552,5.136c0.262,-0.296 0.402,-0.505 0.402,-0.632l-0.009,-3.767c-0.007,-0.132 -0.128,-0.315 -0.347,-0.563c-0.234,-0.245 -0.543,-0.373 -0.916,-0.368c-0.551,0.001 -0.92,0.385 -1.116,1.15c-0.098,0.407 -0.153,0.99 -0.152,1.735c0,0.798 0.061,1.398 0.157,1.806c0.205,0.733 0.555,1.098 1.094,1.095c0.326,0.002 0.629,-0.152 0.887,-0.456" style="fill:#780905;fill-rule:nonzero;"/><path d="M97.49,99.725c0.632,-0.664 1.393,-1.001 2.298,-1.001c0.495,-0.008 0.984,0.129 1.44,0.396c0.441,0.263 0.79,0.631 1.033,1.108c0.189,0.358 0.324,0.822 0.393,1.393c0.039,0.266 0.056,0.469 0.063,0.617l-3.967,0.02c0.033,0.613 0.135,1.155 0.302,1.604c0.314,0.855 0.853,1.278 1.61,1.275c0.361,-0.002 0.71,-0.116 1.033,-0.341c0.198,-0.143 0.444,-0.373 0.731,-0.692l0.358,0.209c-0.475,0.797 -1.036,1.347 -1.66,1.657c-0.411,0.196 -0.869,0.298 -1.416,0.299c-0.757,0.007 -1.476,-0.293 -2.148,-0.89c-0.672,-0.597 -1.009,-1.556 -1.014,-2.88c0.003,-1.187 0.306,-2.114 0.944,-2.774m3.309,1.94c-0.015,-0.916 -0.097,-1.55 -0.231,-1.918c-0.123,-0.358 -0.396,-0.541 -0.78,-0.538c-0.413,0 -0.695,0.213 -0.839,0.632c-0.15,0.419 -0.234,1.03 -0.244,1.835l2.094,-0.011Z" style="fill:#780905;fill-rule:nonzero;"/><path d="M107.233,105.627c0.455,-0.023 0.768,-0.08 0.956,-0.191c0.284,-0.159 0.441,-0.463 0.434,-0.911l-0.034,-7.51c0,-0.453 -0.15,-0.749 -0.431,-0.907c-0.176,-0.097 -0.497,-0.155 -0.964,-0.184l-0.004,-0.395l8.806,-0.037l0.014,3.127l-0.383,0.003c-0.195,-0.966 -0.525,-1.64 -0.973,-2.023c-0.455,-0.382 -1.302,-0.575 -2.53,-0.568c-0.455,-0.001 -0.727,0.052 -0.862,0.158c-0.119,0.102 -0.179,0.301 -0.174,0.581l0.012,3.598c0.841,0.008 1.41,-0.176 1.696,-0.544c0.289,-0.37 0.511,-0.955 0.663,-1.769l0.4,-0.002l0.019,5.249l-0.395,0c-0.103,-0.838 -0.323,-1.452 -0.656,-1.832c-0.314,-0.384 -0.898,-0.575 -1.727,-0.571l0.029,3.615c-0.003,0.48 0.133,0.787 0.417,0.911c0.279,0.131 0.703,0.188 1.272,0.177l0.009,0.396l-5.585,0.024l-0.009,-0.395Z" style="fill:#780905;fill-rule:nonzero;"/><path d="M126.358,96.726c1.06,1.029 1.607,2.363 1.612,3.996c0.009,1.627 -0.528,2.965 -1.579,4.01c-1.038,1.012 -2.346,1.524 -3.893,1.534c-1.668,0.005 -3.017,-0.544 -4.07,-1.646c-0.972,-1.039 -1.473,-2.294 -1.475,-3.769c-0.002,-1.627 0.497,-2.968 1.504,-4.014c1.031,-1.068 2.361,-1.605 3.99,-1.607c1.559,-0.011 2.86,0.492 3.911,1.496m-1.48,6.937c0.224,-0.753 0.325,-1.73 0.33,-2.932c-0.014,-1.65 -0.255,-2.898 -0.757,-3.736c-0.498,-0.83 -1.163,-1.255 -2.012,-1.245c-1.171,0.002 -1.975,0.708 -2.409,2.107c-0.222,0.744 -0.325,1.711 -0.321,2.901c0.008,1.206 0.126,2.18 0.355,2.923c0.443,1.377 1.24,2.063 2.417,2.056c1.176,-0.004 1.963,-0.696 2.397,-2.074" style="fill:#780905;fill-rule:nonzero;"/><path d="M133.991,95.415l0,0.389c-0.6,0.023 -0.992,0.12 -1.192,0.287c-0.206,0.166 -0.304,0.543 -0.304,1.138l0.024,5.202c0.002,0.788 0.099,1.399 0.284,1.828c0.343,0.795 1.003,1.194 1.952,1.189c1.202,-0.004 2.002,-0.451 2.41,-1.339c0.236,-0.486 0.358,-1.163 0.347,-2.042l-0.022,-4.745c0.005,-0.553 -0.11,-0.941 -0.316,-1.145c-0.205,-0.215 -0.602,-0.338 -1.199,-0.381l-0.004,-0.392l3.413,-0.014l0.005,0.392c-0.496,0.096 -0.824,0.217 -0.978,0.358c-0.171,0.143 -0.242,0.456 -0.242,0.957l0.015,4.964c0.01,1.319 -0.302,2.337 -0.933,3.066c-0.633,0.715 -1.626,1.079 -2.997,1.085c-1.786,0.006 -3.002,-0.521 -3.665,-1.585c-0.356,-0.563 -0.527,-1.296 -0.53,-2.187l-0.019,-5.203c0,-0.582 -0.082,-0.947 -0.246,-1.096c-0.155,-0.152 -0.506,-0.254 -1.036,-0.313l0,-0.388l5.233,-0.025Z" style="fill:#780905;fill-rule:nonzero;"/><path d="M140.01,105.879l0,-0.396c0.446,-0.021 0.744,-0.081 0.938,-0.191c0.296,-0.157 0.431,-0.466 0.431,-0.909l-0.034,-7.517c-0.002,-0.452 -0.156,-0.756 -0.45,-0.91c-0.172,-0.091 -0.477,-0.154 -0.935,-0.176l0.002,-0.392l8.949,-0.04l0.01,3.125l-0.373,0c-0.22,-0.997 -0.552,-1.678 -1.017,-2.043c-0.485,-0.367 -1.343,-0.551 -2.593,-0.547c-0.472,0.005 -0.78,0.053 -0.909,0.152c-0.117,0.106 -0.18,0.293 -0.18,0.594l0.014,3.593c0.884,0.008 1.475,-0.159 1.786,-0.492c0.315,-0.338 0.551,-0.941 0.718,-1.82l0.393,-0.004l0.031,5.246l-0.4,0.004c-0.116,-0.885 -0.347,-1.505 -0.691,-1.863c-0.325,-0.364 -0.957,-0.544 -1.837,-0.535l0.017,3.762c0.005,0.326 0.09,0.546 0.256,0.666c0.176,0.118 0.513,0.173 1.051,0.171c0.99,0 1.782,-0.199 2.416,-0.586c0.632,-0.388 1.181,-1.105 1.655,-2.168l0.429,-0.005l-0.612,3.241l-9.065,0.04Z" style="fill:#780905;fill-rule:nonzero;"/><path d="M150.63,102.204l0.453,-0.003c0.248,1.159 0.66,2.004 1.209,2.53c0.551,0.519 1.187,0.781 1.906,0.779c0.684,-0.002 1.181,-0.19 1.455,-0.555c0.299,-0.361 0.442,-0.741 0.448,-1.136c-0.002,-0.468 -0.159,-0.846 -0.464,-1.138c-0.21,-0.187 -0.615,-0.443 -1.233,-0.749l-0.993,-0.497c-0.981,-0.485 -1.676,-0.973 -2.075,-1.455c-0.412,-0.489 -0.612,-1.088 -0.62,-1.797c0,-0.758 0.261,-1.466 0.798,-2.129c0.52,-0.659 1.342,-0.99 2.455,-0.996c0.557,0 1.097,0.078 1.627,0.247c0.523,0.171 0.824,0.255 0.886,0.253c0.178,-0.001 0.299,-0.046 0.36,-0.148c0.058,-0.091 0.117,-0.228 0.159,-0.391l0.457,0l0.012,3.379l-0.43,0.003c-0.204,-0.783 -0.562,-1.453 -1.078,-2.016c-0.501,-0.562 -1.137,-0.845 -1.868,-0.845c-0.513,0.006 -0.915,0.15 -1.211,0.436c-0.301,0.29 -0.444,0.632 -0.444,1.042c0,0.496 0.145,0.859 0.422,1.097c0.279,0.252 0.889,0.612 1.857,1.086l1.14,0.576c0.516,0.253 0.925,0.535 1.235,0.848c0.563,0.584 0.842,1.296 0.845,2.133c0.003,0.783 -0.28,1.521 -0.898,2.22c-0.606,0.694 -1.579,1.047 -2.921,1.05c-0.304,0.001 -0.62,-0.022 -0.932,-0.08c-0.317,-0.056 -0.625,-0.144 -0.937,-0.269l-0.305,-0.107c-0.062,-0.019 -0.128,-0.035 -0.197,-0.048c-0.061,-0.011 -0.116,-0.023 -0.167,-0.018c-0.154,0 -0.267,0.046 -0.323,0.14c-0.057,0.096 -0.106,0.228 -0.157,0.399l-0.445,0l-0.026,-3.841Z" style="fill:#780905;fill-rule:nonzero;"/><path d="M158.989,105.399c0.58,-0.024 0.951,-0.133 1.108,-0.342c0.171,-0.199 0.251,-0.5 0.241,-0.903l-0.029,-7.351c-0.463,-0.525 -0.761,-0.838 -0.88,-0.934c-0.113,-0.092 -0.267,-0.152 -0.45,-0.175l-0.007,-0.393l3.293,-0.012l5.362,6.456l0.072,-0.001l-0.019,-4.555c0.003,-0.532 -0.102,-0.903 -0.285,-1.126c-0.197,-0.224 -0.584,-0.358 -1.149,-0.399l0.003,-0.392l3.327,-0.012l0.005,0.39c-0.479,0.079 -0.817,0.191 -0.979,0.326c-0.156,0.134 -0.235,0.442 -0.233,0.913l0.041,9.149l-0.436,0.002l-6.87,-8.267l-0.106,-0.004l0.038,6.084c0,0.482 0.061,0.814 0.196,1.018c0.195,0.318 0.634,0.489 1.279,0.511l0,0.392l-3.522,0.018l0,-0.393Z" style="fill:#780905;fill-rule:nonzero;"/><path d="M170.229,105.347c0.384,-0.025 0.68,-0.191 0.899,-0.512c0.144,-0.197 0.357,-0.634 0.626,-1.304l3.413,-8.515l0.424,0l3.501,8.14c0.392,0.914 0.692,1.499 0.889,1.767c0.178,0.264 0.46,0.39 0.809,0.378l0.003,0.393l-5.025,0.027l-0.001,-0.394c0.505,-0.026 0.833,-0.069 0.999,-0.139c0.157,-0.063 0.237,-0.23 0.237,-0.501c-0.003,-0.122 -0.039,-0.302 -0.116,-0.553c-0.065,-0.148 -0.128,-0.321 -0.214,-0.53l-0.405,-0.934l-3.49,0.015c-0.219,0.614 -0.363,1.012 -0.433,1.202c-0.13,0.403 -0.195,0.689 -0.193,0.876c0.003,0.222 0.144,0.385 0.449,0.486c0.175,0.053 0.45,0.078 0.799,0.084l0,0.396l-3.171,0.015l0,-0.397Zm5.81,-3.292l-1.506,-3.586l-0.13,0.001l-1.379,3.598l3.015,-0.013Z" style="fill:#780905;fill-rule:nonzero;"/><path d="M181.405,105.3c0.575,-0.022 0.952,-0.134 1.11,-0.337c0.172,-0.205 0.256,-0.507 0.251,-0.905l-0.034,-7.357c-0.479,-0.524 -0.768,-0.832 -0.881,-0.93c-0.121,-0.093 -0.261,-0.154 -0.451,-0.173l-0.005,-0.393l3.292,-0.014l5.356,6.457l0.08,-0.003l-0.017,-4.556c-0.007,-0.53 -0.099,-0.902 -0.289,-1.121c-0.195,-0.227 -0.581,-0.36 -1.149,-0.402l-0.01,-0.391l3.333,-0.016l0.002,0.39c-0.475,0.08 -0.8,0.192 -0.957,0.332c-0.174,0.13 -0.255,0.434 -0.258,0.911l0.046,9.146l-0.431,0.003l-6.867,-8.269l-0.099,0.002l0.023,6.082c0.003,0.479 0.063,0.812 0.201,1.017c0.205,0.318 0.628,0.488 1.271,0.511l0,0.395l-3.512,0.015l-0.005,-0.394Z" style="fill:#780905;fill-rule:nonzero;"/><path d="M192.735,95.153l9.344,-0.037l0.029,3.123l-0.45,0.001c-0.155,-1.115 -0.576,-1.869 -1.266,-2.264c-0.39,-0.218 -0.975,-0.331 -1.74,-0.351l0.042,8.177c0.005,0.578 0.096,0.95 0.301,1.138c0.188,0.184 0.61,0.28 1.233,0.278l0,0.393l-5.522,0.022l-0.002,-0.393c0.607,0 1.002,-0.103 1.214,-0.294c0.193,-0.187 0.296,-0.566 0.287,-1.132l-0.036,-8.178c-0.755,0.026 -1.343,0.146 -1.74,0.367c-0.74,0.407 -1.157,1.167 -1.258,2.274l-0.449,0.004l0.013,-3.128Z" style="fill:#780905;fill-rule:nonzero;"/><path d="M88.353,99.418c0.586,-0.717 1.275,-1.076 2.102,-1.079c0.402,0 0.765,0.103 1.084,0.301c0.197,0.117 0.443,0.335 0.743,0.651l-0.011,-2.845c-0.002,-0.393 -0.077,-0.637 -0.224,-0.724c-0.149,-0.097 -0.474,-0.152 -0.947,-0.17l-0.002,-0.371l3.342,-0.014l0.048,8.933c-0.005,0.322 0.06,0.542 0.176,0.662c0.13,0.124 0.354,0.195 0.714,0.229l0.004,0.359c-0.874,0.087 -1.431,0.152 -1.677,0.198c-0.257,0.048 -0.696,0.155 -1.338,0.333l-0.004,-1.024c-0.289,0.308 -0.559,0.532 -0.805,0.681c-0.381,0.23 -0.798,0.348 -1.233,0.354c-0.757,0.001 -1.43,-0.317 -1.979,-0.956c-0.573,-0.638 -0.856,-1.505 -0.86,-2.606c-0.014,-1.232 0.282,-2.202 0.867,-2.912m3.552,5.137c0.263,-0.297 0.402,-0.507 0.402,-0.63l-0.011,-3.768c-0.003,-0.134 -0.126,-0.316 -0.345,-0.562c-0.234,-0.246 -0.544,-0.373 -0.916,-0.371c-0.55,0.001 -0.923,0.387 -1.116,1.151c-0.098,0.407 -0.153,0.992 -0.151,1.735c0,0.798 0.06,1.397 0.156,1.806c0.205,0.733 0.555,1.097 1.094,1.094c0.325,0.001 0.627,-0.152 0.887,-0.455" style="fill:#fff161;fill-rule:nonzero;"/><path d="M97.009,99.305c0.631,-0.662 1.392,-1.001 2.296,-1.001c0.497,-0.007 0.985,0.13 1.441,0.396c0.441,0.264 0.79,0.633 1.033,1.107c0.188,0.359 0.323,0.826 0.393,1.394c0.037,0.266 0.056,0.47 0.061,0.616l-3.964,0.021c0.028,0.614 0.135,1.157 0.298,1.606c0.318,0.854 0.854,1.279 1.615,1.274c0.359,-0.002 0.708,-0.118 1.031,-0.342c0.196,-0.142 0.443,-0.373 0.731,-0.691l0.359,0.209c-0.475,0.795 -1.034,1.347 -1.661,1.656c-0.412,0.199 -0.87,0.3 -1.417,0.301c-0.754,0.004 -1.475,-0.295 -2.144,-0.89c-0.677,-0.599 -1.012,-1.559 -1.017,-2.879c0.002,-1.189 0.306,-2.117 0.945,-2.777m3.306,1.94c-0.013,-0.914 -0.097,-1.547 -0.23,-1.917c-0.122,-0.357 -0.397,-0.541 -0.78,-0.539c-0.415,0 -0.694,0.214 -0.836,0.632c-0.153,0.419 -0.237,1.031 -0.246,1.835l2.092,-0.011Z" style="fill:#fff161;fill-rule:nonzero;"/><path d="M106.753,105.207c0.451,-0.023 0.766,-0.079 0.952,-0.189c0.287,-0.16 0.441,-0.465 0.436,-0.912l-0.033,-7.509c0,-0.454 -0.148,-0.751 -0.435,-0.908c-0.176,-0.097 -0.493,-0.155 -0.96,-0.185l-0.006,-0.395l8.805,-0.035l0.017,3.125l-0.381,0.002c-0.198,-0.964 -0.53,-1.637 -0.976,-2.018c-0.455,-0.385 -1.301,-0.577 -2.53,-0.572c-0.455,-0.001 -0.728,0.053 -0.865,0.159c-0.118,0.101 -0.179,0.299 -0.173,0.579l0.014,3.599c0.841,0.007 1.41,-0.175 1.694,-0.544c0.292,-0.366 0.513,-0.955 0.665,-1.769l0.4,-0.002l0.019,5.25l-0.398,0c-0.101,-0.84 -0.319,-1.451 -0.652,-1.832c-0.316,-0.386 -0.897,-0.575 -1.728,-0.569l0.031,3.612c-0.004,0.483 0.128,0.788 0.415,0.912c0.28,0.131 0.704,0.188 1.272,0.176l0.01,0.395l-5.585,0.025l-0.008,-0.395Z" style="fill:#fff161;fill-rule:nonzero;"/><path d="M125.876,96.305c1.06,1.031 1.604,2.364 1.609,3.997c0.012,1.629 -0.527,2.968 -1.576,4.011c-1.038,1.011 -2.346,1.525 -3.895,1.533c-1.666,0.006 -3.017,-0.543 -4.066,-1.646c-0.973,-1.04 -1.474,-2.292 -1.477,-3.768c-0.002,-1.627 0.497,-2.968 1.504,-4.014c1.031,-1.068 2.364,-1.604 3.99,-1.608c1.559,-0.01 2.861,0.493 3.911,1.495m-1.48,6.938c0.224,-0.751 0.328,-1.729 0.333,-2.931c-0.022,-1.649 -0.261,-2.899 -0.761,-3.734c-0.497,-0.832 -1.163,-1.257 -2.012,-1.249c-1.17,0.003 -1.975,0.71 -2.408,2.112c-0.224,0.743 -0.325,1.706 -0.318,2.898c0.005,1.206 0.12,2.182 0.352,2.922c0.446,1.379 1.243,2.063 2.417,2.058c1.176,-0.006 1.964,-0.696 2.397,-2.076" style="fill:#fff161;fill-rule:nonzero;"/><path d="M133.512,94.997l0,0.387c-0.6,0.023 -0.998,0.12 -1.192,0.287c-0.206,0.168 -0.307,0.542 -0.307,1.139l0.021,5.202c0.003,0.789 0.102,1.399 0.288,1.829c0.339,0.795 1.002,1.194 1.952,1.188c1.202,-0.003 2.001,-0.449 2.407,-1.338c0.236,-0.486 0.359,-1.164 0.348,-2.044l-0.023,-4.745c0.007,-0.554 -0.106,-0.941 -0.311,-1.145c-0.207,-0.213 -0.607,-0.339 -1.2,-0.38l-0.005,-0.391l3.412,-0.014l0.005,0.391c-0.497,0.097 -0.824,0.215 -0.981,0.358c-0.169,0.143 -0.241,0.457 -0.241,0.955l0.02,4.964c0.006,1.321 -0.302,2.339 -0.938,3.067c-0.631,0.716 -1.626,1.079 -2.995,1.086c-1.786,0.005 -3.005,-0.518 -3.662,-1.586c-0.36,-0.563 -0.531,-1.296 -0.533,-2.185l-0.022,-5.203c0,-0.582 -0.079,-0.947 -0.241,-1.097c-0.156,-0.154 -0.508,-0.254 -1.038,-0.315l0,-0.387l5.236,-0.023Z" style="fill:#fff161;fill-rule:nonzero;"/><path d="M139.528,105.458l0,-0.394c0.446,-0.021 0.746,-0.082 0.935,-0.189c0.297,-0.159 0.437,-0.469 0.437,-0.913l-0.036,-7.515c-0.003,-0.45 -0.16,-0.754 -0.454,-0.908c-0.169,-0.094 -0.477,-0.157 -0.932,-0.178l0.003,-0.391l8.949,-0.042l0.009,3.125l-0.376,0c-0.217,-0.997 -0.549,-1.678 -1.014,-2.042c-0.484,-0.369 -1.342,-0.551 -2.595,-0.547c-0.47,0.005 -0.779,0.053 -0.906,0.153c-0.121,0.105 -0.183,0.29 -0.183,0.592l0.019,3.594c0.882,0.006 1.472,-0.161 1.781,-0.493c0.32,-0.335 0.554,-0.941 0.722,-1.819l0.394,-0.004l0.028,5.247l-0.402,0.001c-0.116,-0.883 -0.345,-1.503 -0.689,-1.86c-0.324,-0.365 -0.957,-0.544 -1.834,-0.538l0.012,3.762c0.007,0.327 0.094,0.548 0.258,0.667c0.176,0.121 0.511,0.172 1.051,0.17c0.989,0 1.785,-0.198 2.414,-0.586c0.634,-0.387 1.181,-1.102 1.657,-2.166l0.43,-0.005l-0.613,3.241l-9.065,0.038Z" style="fill:#fff161;fill-rule:nonzero;"/><path d="M150.147,101.784l0.454,-0.001c0.245,1.157 0.658,2.001 1.209,2.529c0.555,0.518 1.188,0.781 1.904,0.777c0.686,-0.002 1.181,-0.188 1.461,-0.554c0.298,-0.358 0.438,-0.74 0.444,-1.136c-0.002,-0.469 -0.159,-0.845 -0.465,-1.139c-0.209,-0.183 -0.617,-0.443 -1.235,-0.745l-0.99,-0.499c-0.982,-0.486 -1.677,-0.974 -2.076,-1.457c-0.411,-0.488 -0.611,-1.085 -0.619,-1.794c0,-0.76 0.258,-1.467 0.798,-2.128c0.518,-0.66 1.345,-0.991 2.453,-0.996c0.556,0 1.099,0.077 1.629,0.245c0.52,0.173 0.824,0.256 0.887,0.254c0.178,-0.002 0.298,-0.048 0.361,-0.149c0.056,-0.091 0.115,-0.228 0.154,-0.391l0.46,0l0.012,3.377l-0.43,0.005c-0.201,-0.781 -0.564,-1.454 -1.078,-2.017c-0.501,-0.563 -1.137,-0.844 -1.867,-0.844c-0.514,0.005 -0.916,0.148 -1.212,0.435c-0.302,0.29 -0.444,0.632 -0.444,1.042c0,0.495 0.145,0.86 0.422,1.098c0.279,0.25 0.889,0.611 1.857,1.088l1.141,0.574c0.516,0.254 0.925,0.535 1.231,0.847c0.563,0.587 0.848,1.296 0.85,2.134c0.003,0.784 -0.284,1.519 -0.9,2.22c-0.606,0.692 -1.579,1.047 -2.921,1.051c-0.309,0 -0.62,-0.023 -0.933,-0.081c-0.318,-0.057 -0.624,-0.146 -0.937,-0.269l-0.305,-0.107c-0.061,-0.019 -0.126,-0.035 -0.193,-0.048c-0.066,-0.011 -0.12,-0.023 -0.169,-0.02c-0.155,0 -0.268,0.048 -0.321,0.141c-0.06,0.097 -0.108,0.229 -0.159,0.399l-0.444,0.002l-0.029,-3.843Z" style="fill:#fff161;fill-rule:nonzero;"/><path d="M158.504,104.98c0.583,-0.025 0.956,-0.134 1.111,-0.342c0.171,-0.2 0.248,-0.502 0.243,-0.903l-0.031,-7.353c-0.465,-0.523 -0.764,-0.836 -0.882,-0.932c-0.113,-0.092 -0.268,-0.152 -0.448,-0.177l-0.007,-0.391l3.291,-0.015l5.366,6.46l0.07,-0.003l-0.021,-4.554c0.002,-0.529 -0.099,-0.903 -0.282,-1.126c-0.199,-0.225 -0.586,-0.357 -1.15,-0.401l0.002,-0.391l3.328,-0.013l0.005,0.39c-0.482,0.08 -0.817,0.193 -0.978,0.327c-0.16,0.137 -0.236,0.444 -0.234,0.913l0.044,9.151l-0.441,0.001l-6.868,-8.268l-0.109,-0.002l0.044,6.083c0,0.482 0.058,0.813 0.193,1.017c0.197,0.321 0.634,0.489 1.28,0.514l0,0.389l-3.526,0.021l0,-0.395Z" style="fill:#fff161;fill-rule:nonzero;"/><path d="M169.747,104.926c0.386,-0.023 0.682,-0.188 0.9,-0.509c0.144,-0.197 0.356,-0.635 0.626,-1.305l3.412,-8.514l0.424,-0.001l3.498,8.138c0.396,0.915 0.694,1.502 0.889,1.769c0.179,0.265 0.463,0.389 0.816,0.378l0.002,0.395l-5.027,0.023l-0.003,-0.394c0.507,-0.024 0.836,-0.069 1.001,-0.136c0.156,-0.065 0.238,-0.233 0.238,-0.502c-0.003,-0.122 -0.044,-0.304 -0.118,-0.554c-0.065,-0.149 -0.131,-0.32 -0.219,-0.529l-0.401,-0.934l-3.488,0.013c-0.222,0.617 -0.362,1.016 -0.434,1.204c-0.128,0.403 -0.195,0.689 -0.193,0.875c0.003,0.222 0.144,0.386 0.448,0.487c0.176,0.053 0.451,0.076 0.803,0.086l0,0.392l-3.174,0.016l0,-0.398Zm5.81,-3.291l-1.506,-3.587l-0.128,0.002l-1.381,3.598l3.015,-0.013Z" style="fill:#fff161;fill-rule:nonzero;"/><path d="M180.921,104.881c0.578,-0.022 0.954,-0.135 1.113,-0.339c0.173,-0.203 0.256,-0.506 0.25,-0.905l-0.036,-7.355c-0.479,-0.524 -0.769,-0.832 -0.879,-0.928c-0.121,-0.096 -0.258,-0.156 -0.451,-0.177l-0.005,-0.392l3.292,-0.015l5.356,6.458l0.078,-0.004l-0.014,-4.555c-0.008,-0.529 -0.102,-0.9 -0.29,-1.122c-0.2,-0.225 -0.583,-0.357 -1.149,-0.4l-0.01,-0.393l3.33,-0.013l0.005,0.389c-0.475,0.08 -0.8,0.192 -0.959,0.331c-0.174,0.131 -0.251,0.435 -0.253,0.911l0.043,9.148l-0.434,0.004l-6.867,-8.272l-0.096,0.001l0.023,6.083c0.003,0.479 0.064,0.813 0.199,1.018c0.205,0.317 0.631,0.485 1.271,0.51l0,0.395l-3.51,0.017l-0.007,-0.395Z" style="fill:#fff161;fill-rule:nonzero;"/><path d="M192.253,94.734l9.345,-0.039l0.028,3.124l-0.45,0.002c-0.157,-1.116 -0.576,-1.87 -1.265,-2.265c-0.393,-0.216 -0.976,-0.332 -1.738,-0.349l0.036,8.176c0.006,0.578 0.097,0.95 0.301,1.139c0.191,0.183 0.613,0.279 1.237,0.278l0,0.391l-5.525,0.024l-0.003,-0.394c0.609,0 1.005,-0.103 1.215,-0.294c0.195,-0.187 0.296,-0.566 0.289,-1.133l-0.034,-8.175c-0.76,0.023 -1.347,0.144 -1.742,0.363c-0.74,0.409 -1.155,1.168 -1.258,2.276l-0.45,0.005l0.014,-3.129Z" style="fill:#fff161;fill-rule:nonzero;"/><path d="M39.004,101.226l43.041,-0.188l0.007,1.736l-43.04,0.188l-0.008,-1.736Z" style="fill:#780905;"/><path d="M206.167,100.491l44.162,-0.408l0.016,1.735l-44.162,0.407l-0.016,-1.734Z" style="fill:#780905;"/><path d="M38.566,100.652l43.04,-0.19l0.008,1.735l-43.041,0.19l-0.007,-1.735Z" style="fill:#fff161;"/><path d="M205.726,99.917l44.164,-0.407l0.016,1.732l-44.164,0.407l-0.016,-1.732Z" style="fill:#fff161;"/></g></g></svg>