<?xml version="1.0" encoding="UTF-8" standalone="no"?><!DOCTYPE svg PUBLIC "-//W3C//DTD SVG 1.1//EN" "http://www.w3.org/Graphics/SVG/1.1/DTD/svg11.dtd"><svg width="100%" height="100%" viewBox="0 0 22 21" version="1.1" xmlns="http://www.w3.org/2000/svg" xmlns:xlink="http://www.w3.org/1999/xlink" xml:space="preserve" xmlns:serif="http://www.serif.com/" style="fill-rule:evenodd;clip-rule:evenodd;stroke-linejoin:round;stroke-miterlimit:1.41421;"><path d="M19.397,10.545c-1.118,-0.984 -2.273,-1.464 -3.956,-1.464c-0.564,0 -1.313,0.166 -1.859,0.35c-1.236,0.344 -2.173,0.509 -3.419,0.093c-1.086,-0.362 -1.946,-0.961 -2.496,-1.956c-0.907,-1.641 -0.663,-3.779 0.646,-4.906c1.015,-0.873 2.351,-1.005 3.443,-0.386c1.185,0.671 1.809,2.046 0.908,3.253c-0.426,0.486 -1.161,0.76 -1.718,0.314c-0.165,-0.133 -0.264,-0.279 -0.272,-0.513c-0.016,-0.465 0.389,-0.386 0.603,-0.557c0.223,-0.179 0.131,-0.64 -0.16,-0.851c-0.434,-0.315 -1.028,-0.247 -1.444,0.051c-1.344,0.962 -0.629,3.238 1.047,3.765c0.756,0.237 1.624,0.184 2.311,-0.163c1.021,-0.516 1.579,-1.285 1.856,-2.376c0.359,-1.412 -0.192,-3.042 -1.279,-3.998c-0.713,-0.628 -1.455,-0.953 -2.391,-1.124c-1.851,-0.339 -3.577,0.477 -4.778,1.824c-0.832,1.069 -1.271,2.185 -1.271,3.593c0,2.005 0.746,3.198 2.142,4.602c0.507,0.55 1.113,1.141 1.425,1.832c0.35,0.779 0.475,1.637 0.377,2.466c-0.149,1.263 -0.793,2.407 -1.859,3.088c-1.33,0.85 -2.981,0.753 -4.096,-0.06c-1.406,-1.027 -1.82,-3.332 -0.222,-4.39c1.04,-0.643 2.491,-0.338 2.491,1.057c0,0.372 -0.334,0.63 -0.65,0.521c-0.21,-0.073 -0.239,-0.308 -0.488,-0.329c-0.331,-0.027 -0.569,0.274 -0.569,0.654c0,1.165 1.222,1.511 2.197,1.123c1.395,-0.557 1.626,-2.545 0.912,-3.715c-1.428,-2.343 -5.027,-1.816 -6.292,0.581c-1.237,2.343 -0.198,4.914 1.736,6.221c1.943,1.313 4.369,1.034 6.166,-0.222c1.806,-1.261 2.108,-2.511 2.658,-4.474c0.365,-1.22 1.101,-2.165 2.167,-2.84c0.509,-0.322 1.194,-0.529 1.792,-0.575c2.021,-0.157 3.992,0.954 4.308,3.137c0.222,1.533 -0.759,3.202 -2.378,3.427c-0.915,0.127 -1.907,-0.403 -2.248,-1.15c-0.282,-0.619 0.017,-1.559 0.653,-1.779c0.205,-0.071 0.415,-0.061 0.572,0.076c0.42,0.368 -0.16,0.738 0.252,1.039c0.498,0.365 1.481,-0.256 1.317,-1.288c-0.275,-1.725 -2.529,-2.159 -3.78,-0.908c-0.603,0.604 -0.978,1.496 -0.978,2.366c0,1.522 0.98,2.66 2.329,3.267c1.196,0.537 2.749,0.332 3.866,-0.342c1.455,-0.879 2.196,-2.275 2.342,-3.942c0.15,-1.705 -0.491,-3.14 -1.913,-4.392Z" style="fill:#fff;fill-rule:nonzero;"/></svg>